<?xml version="1.0" encoding="UTF-8" standalone="no"?>
<!-- Created with Inkscape (http://www.inkscape.org/) -->

<svg
   width="2407.1792mm"
   height="439.20834mm"
   viewBox="0 0 2407.1792 439.20834"
   version="1.1"
   id="svg287"
   xml:space="preserve"
   inkscape:version="1.2 (dc2aedaf03, 2022-05-15)"
   sodipodi:docname="NIGHTHAWK-Logo-Master-20-gray.svg"
   xmlns:inkscape="http://www.inkscape.org/namespaces/inkscape"
   xmlns:sodipodi="http://sodipodi.sourceforge.net/DTD/sodipodi-0.dtd"
   xmlns="http://www.w3.org/2000/svg"
   xmlns:svg="http://www.w3.org/2000/svg"><sodipodi:namedview
     id="namedview289"
     pagecolor="#ffffff"
     bordercolor="#000000"
     borderopacity="0.25"
     inkscape:showpageshadow="2"
     inkscape:pageopacity="0.0"
     inkscape:pagecheckerboard="0"
     inkscape:deskcolor="#d1d1d1"
     inkscape:document-units="mm"
     showgrid="false"
     inkscape:zoom="0.14937349"
     inkscape:cx="4549.0001"
     inkscape:cy="856.91245"
     inkscape:window-width="1920"
     inkscape:window-height="1009"
     inkscape:window-x="-8"
     inkscape:window-y="-8"
     inkscape:window-maximized="1"
     inkscape:current-layer="layer1" /><defs
     id="defs284" /><g
     inkscape:label="Layer 1"
     inkscape:groupmode="layer"
     id="layer1"
     transform="translate(1097.834,43.467697)"><path
       style="fill:#cccccc;stroke-width:0.264583"
       d="m 420.18258,394.29409 c 0.8255,-1.42555 16.22513,-29.4853 20.1838,-36.77709 l 3.16013,-5.82083 17.22739,-0.007 c 11.71824,-0.005 17.16185,0.0802 17.02244,0.26458 -0.631,0.83465 -7.44497,9.32349 -11.79229,14.69088 -2.76984,3.41974 -8.51008,10.62302 -12.75614,16.0073 -4.24604,5.38427 -8.23421,10.41857 -8.86259,11.18732 l -1.14253,1.39777 -11.82653,0.0574 -11.82653,0.0575 0.61285,-1.05834 z m 617.98602,-9.11731 3.2437,-3.42878 1.6942,-5.85187 c 0.9318,-3.21853 1.6498,-5.89627 1.5955,-5.95054 -0.054,-0.0543 -2.5355,0.68604 -5.5139,1.64516 l -5.4153,1.74384 -4.5925,-0.45003 c -2.5258,-0.24749 -4.6524,-0.3901 -4.7256,-0.31687 -0.073,0.0732 0.3717,2.82321 0.9886,6.11109 0.6169,3.28787 1.0685,6.03109 1.0036,6.09608 -0.1497,0.14964 -9.7847,-3.03552 -10.1232,-3.34656 -0.1573,-0.14446 0.023,-1.98718 0.4824,-4.92728 0.7014,-4.49003 0.8108,-4.87519 2.4883,-8.76054 0.965,-2.2352 1.879,-4.108 2.0311,-4.16174 0.152,-0.0538 1.5266,-0.18947 3.0546,-0.30162 l 2.7781,-0.20387 -0.056,-2.13801 -0.056,-2.138 1.1749,-1.15313 1.1749,-1.15311 4.0401,0.45593 c 2.9818,0.33653 4.3867,0.38823 5.3631,0.19743 2.5628,-0.5008 7.1733,-1.66303 9.7895,-2.46784 1.4552,-0.44765 4.5509,-1.2522 6.8792,-1.78787 l 4.2333,-0.97399 0.1384,-7.1207 c 0.1718,-8.84687 0.2117,-9.01176 4.3841,-18.12676 2.7009,-5.90042 3.2359,-7.31457 4.3818,-11.58225 0.7179,-2.67369 1.2703,-4.88849 1.2276,-4.9218 -0.043,-0.0333 -1.1097,-0.68591 -2.371,-1.45021 l -2.2933,-1.38964 -1.94,0.31181 c -1.067,0.1715 -2.1414,0.36832 -2.3876,0.43738 -0.2461,0.069 -2.3166,2.17355 -4.6011,4.6767 -3.73,4.08691 -4.467,4.75718 -7.2254,6.57108 l -3.0718,2.01991 -10.0542,1.76871 -10.0541,1.76872 -2.0363,2.1645 c -1.1313,1.20243 -1.9928,2.34087 -1.9383,2.56135 0.054,0.21828 0.426,2.36141 0.8268,4.7625 l 0.7288,4.36563 -2.4743,3.71083 -2.4742,3.71084 -3.9377,2.8707 -3.9377,2.8707 -2.8786,-0.34232 -2.8787,-0.34234 -2.8568,-2.86578 c -1.5713,-1.57615 -2.7839,-2.86576 -2.6948,-2.86576 0.089,0 1.5754,0.45249 3.3028,1.0055 l 3.1406,1.00552 2.9105,-0.61994 c 1.6007,-0.34097 3.0399,-0.7637 3.1983,-0.93938 0.4314,-0.4785 3.0186,-6.46851 3.024,-7.00117 0,-0.2541 -0.4923,-2.76227 -1.0996,-5.57374 l -1.1044,-5.11175 -2.8921,-1.45047 -2.8922,-1.45047 -0.8368,0.65016 c -0.4603,0.35761 -1.6493,1.40563 -2.6424,2.32892 l -1.8055,1.6787 -1.0137,4.054 c -0.5576,2.22967 -1.0604,4.10069 -1.1176,4.15779 -0.057,0.0571 -1.0506,-1.10477 -2.2078,-2.58194 -1.1572,-1.47716 -2.4871,-3.17396 -2.9553,-3.77065 l -0.8513,-1.08487 1.1976,-3.65689 c 0.6586,-2.01128 1.1608,-3.68742 1.1159,-3.72475 -0.1277,-0.10607 -17.7116,-0.72207 -17.8082,-0.62383 -0.047,0.048 -0.173,2.68385 -0.2794,5.85731 -0.1064,3.17344 -0.2901,5.6732 -0.4084,5.55498 -0.1182,-0.11821 -1.6591,-2.82683 -3.4242,-6.01913 l -3.2092,-5.80422 0.5809,-2.04026 0.5809,-2.04023 4.8628,-3.3239 4.8627,-3.32394 10.7844,0.0206 c 7.0552,0.0135 13.4267,-0.13142 18.4259,-0.41883 l 7.6415,-0.43935 2.0284,-1.16996 2.0284,-1.16996 2.3686,-10.64882 2.3686,-10.64879 8.2021,-6.81347 8.2021,-6.81344 1.8245,-5.31471 1.8247,-5.31472 -1.6567,-4.18248 -1.6566,-4.18248 -4.6097,-4.20293 -4.6097,-4.20296 -7.7048,-2.85239 c -4.2376,-1.5688 -7.7752,-2.81895 -7.8614,-2.77813 -0.086,0.0409 -3.1226,3.14558 -6.7476,6.89938 l -6.5911,6.82512 -0.2949,3.26271 c -0.3138,3.47202 -0.379,3.63048 -2.0343,4.94146 l -1.0101,0.80005 -1.7935,-1.07149 c -1.7276,-1.03216 -1.8581,-1.18557 -3.558,-4.18346 l -1.7646,-3.112 -0.3026,-4.14213 c -0.1665,-2.27817 -0.2345,-4.54036 -0.1511,-5.02708 1.6661,-9.73196 2.0776,-12.02706 2.4405,-13.61215 l 0.4302,-1.87926 -1.5264,-5.66137 -1.5264,-5.66134 0.3259,-2.77813 0.3259,-2.77812 3.4724,-4.89479 c 2.6453,-3.72892 4.4906,-5.96717 7.7473,-9.39703 l 4.2749,-4.50224 5.9155,-2.61141 c 3.2536,-1.43628 7.0467,-3.28671 8.4291,-4.11206 1.3825,-0.82535 2.7305,-1.58261 2.9958,-1.6828 0.4433,-0.16748 0.4677,-0.43257 0.3029,-3.29195 l -0.1792,-3.10994 -4.8544,-11.1316 -4.8545,-11.13161 -0.1871,-9.33773 -0.1872,-9.33773 -3.2445,-7.44421 -3.2445,-7.4442 -6.3044,-8.49952 -6.3043,-8.49952 -9.9219,-5.90094 c -9.122,-5.425253 -10.4145,-6.286423 -16.0329,-10.682773 l -6.111,-4.78183 -0.9702,-4.10105 c -0.5336,-2.25557 -0.9686,-4.27683 -0.9666,-4.49169 0,-0.21486 0.852,-1.24469 1.8888,-2.28852 l 1.8852,-1.89787 -6.6087,-12.66044 -6.60865,-12.66043 -3.32261,-11.51843 -3.32261,-11.51842 -0.0762,-4.95125 -0.0762,-4.95126 0.89818,-0.92667 c 0.49398,-0.50968 1.02365,-0.92855 1.177,-0.93084 0.15335,-0.002 2.27523,0.91653 4.71533,2.04181 l 4.4365,2.04597 0.5198,1.7285 c 0.28591,0.95068 2.15146,7.29235 4.14556,14.09259 1.9942,6.80026 3.6599,12.33003 3.7015,12.28838 0.042,-0.0416 -0.012,-2.92658 -0.1187,-6.41097 -0.1902,-6.19474 -0.1773,-6.44358 0.5797,-11.22009 l 0.7741,-4.88483 2.7725,-4.24329 c 1.5248,-2.33381 3.0638,-4.70417 3.4199,-5.26748 l 0.6474,-1.02419 1.1671,1.14542 1.1671,1.14543 0.036,7.68397 c 0.02,4.22619 0.1093,11.54818 0.1984,16.27109 l 0.1622,8.58711 4.859,-9.19617 c 2.6724,-5.0579 4.8971,-9.15802 4.9437,-9.11138 0.047,0.0466 0.6327,1.6304 1.3022,3.51948 l 1.2174,3.43468 -0.274,8.46667 c -0.1506,4.65667 -0.3266,9.27034 -0.3911,10.2526 -0.064,0.98227 -0.035,1.78177 0.066,1.77667 0.1007,-0.005 0.957,-1.13013 1.9029,-2.50007 1.5885,-2.30071 1.9597,-2.65629 4.863,-4.65918 l 3.1433,-2.16837 1.3677,0.67078 1.3677,0.67078 1.2437,3.82769 c 0.684,2.10524 1.2437,3.96372 1.2437,4.12996 0,0.58335 0.4059,0.28292 2.6926,-1.99326 l 2.3062,-2.29552 2.7261,1.2728 c 1.4994,0.70004 2.8607,1.3786 3.0253,1.50792 0.1645,0.12931 0.5074,1.33368 0.7622,2.67637 0.2546,1.34268 0.5368,2.52192 0.6269,2.62053 0.09,0.0986 2.5906,0.60052 5.5567,1.11537 2.966,0.51485 5.4488,0.99217 5.5174,1.06071 0.069,0.0685 0.5023,3.788 0.9639,8.26548 l 0.8393,8.14087 2.575,0.4623 c 2.2888,0.41091 2.9819,0.68426 6.235,2.45924 2.013,1.09833 3.8962,1.99695 4.1849,1.99695 0.2887,0 1.4001,-0.29765 2.4698,-0.66145 1.0696,-0.36381 2.0174,-0.66146 2.1061,-0.66146 0.089,0 0.4908,0.62508 0.8934,1.38906 l 0.7321,1.38906 -0.9191,9.12675 c -0.5055,5.01971 -0.8813,9.164593 -0.835,9.210843 0.046,0.0463 1.3504,-0.63479 2.898,-1.51344 2.7637,-1.568993 2.8658,-1.602713 5.715,-1.887553 l 2.901,-0.29002 2.3824,2.021233 c 1.5388,1.30563 2.3823,2.20944 2.3823,2.55282 0,0.29237 -0.4167,3.21724 -0.926,6.4997 -0.5094,3.28246 -0.9261,6.25633 -0.9261,6.6086 0,0.39918 0.5794,1.3137 1.538,2.42745 l 1.538,1.78697 0.4822,4.87937 c 0.2652,2.68365 0.589,5.01533 0.7197,5.18152 0.1306,0.16618 2.2278,1.44723 4.6605,2.84676 2.4327,1.39953 4.5599,2.63278 4.7271,2.74056 0.1672,0.10777 1.0323,4.48219 1.9223,9.72094 0.8901,5.23875 1.6762,9.78474 1.747,10.1022 0.071,0.31746 1.7539,2.57391 3.7401,5.01434 l 3.6114,4.43714 -0.1751,5.83358 c -0.1214,4.04126 -0.3872,7.32101 -0.8653,10.67484 -0.3795,2.6627 -0.6254,4.90596 -0.5463,4.98502 0.079,0.0791 1.7898,-0.12096 3.8018,-0.44449 l 3.658,-0.58824 4.3656,-4.42766 4.3657,-4.42765 5.7189,-2.8722 5.719,-2.8722 4.5998,-6.52004 4.5998,-6.52004 7.276,-1.52717 c 4.0018,-0.83994 7.441,-1.61395 7.6427,-1.72001 0.2017,-0.10607 6.7036,-5.71547 14.4486,-12.46534 l 14.0819,-12.2725 6.9827,-21.86632 6.9826,-21.866313 4.8086,-5.37906 c 2.6446,-2.95848 4.9085,-5.41238 5.0307,-5.45313 0.1222,-0.0407 0.6224,2.99234 1.1114,6.74017 0.4891,3.74783 0.9726,6.97044 1.0744,7.16136 0.1148,0.21524 2.2746,-3.25271 5.685,-9.12813 l 5.4997,-9.47524 0.4985,-7.40833 c 0.2742,-4.07459 0.9842,-14.25443 1.5779,-22.62188 0.8861,-12.48723 1.1853,-18.81952 1.6701,-35.33588 l 0.5907,-20.12235 1.7972,-3.09484 c 0.9884,-1.70217 1.8965,-3.09485 2.018,-3.09485 0.1726,0 1.8974,1.291 4.449,3.33006 0.051,0.0406 0.9116,3.6835 1.9129,8.09533 l 1.8204,8.02149 0.01,17.55659 0.01,17.5566 0.6978,0.83195 c 0.3838,0.45757 1.2712,1.46058 1.9721,2.22892 l 1.2744,1.39698 1.4759,-1.96096 c 1.3965,-1.85544 1.5755,-2.27944 3.3268,-7.87927 1.7304,-5.5334 1.9185,-6.38292 2.8913,-13.06206 0.9545,-6.55287 1.0633,-7.88783 1.315,-16.13959 0.1509,-4.9477 0.2747,-11.43812 0.2751,-14.42314 0,-3.98154 0.2494,-8.31217 0.9339,-16.25689 0.5132,-5.95628 0.9597,-10.84937 0.9922,-10.87354 0.032,-0.0242 1.3452,-0.47085 2.9172,-0.99263 2.012,-0.66782 2.8912,-0.85507 2.9697,-0.63249 0.061,0.17391 0.9479,4.72151 1.9701,10.10578 l 1.8586,9.78958 0.8695,13.05471 0.8695,13.05471 -0.8577,9.30258 c -0.4718,5.11642 -0.863,9.75647 -0.8692,10.31121 l -0.011,1.00863 1.1876,-0.85284 c 1.333,-0.9573 0.8243,0.20769 7.6705,-17.56858 l 3.2608,-8.46667 0.5838,-5.41167 0.5839,-5.41167 3.0482,-9.53729 3.0483,-9.53729 2.7621,-4.03719 c 2.4842,-3.631 2.8095,-4.00369 3.2327,-3.70417 0.2588,0.18317 1.1272,0.86881 1.9297,1.52366 l 1.4592,1.19062 0.3209,3.43958 c 0.1765,1.89177 0.3272,3.79677 0.3348,4.23334 0.01,0.43656 -1.0132,5.68631 -2.2687,11.66611 l -2.2827,10.87237 -4.1009,11.74951 c -2.2555,6.46223 -4.101,11.8388 -4.1011,11.94795 -10e-5,0.10914 0.9394,0.19843 2.0878,0.19843 h 2.088 l 2.2988,-2.71198 c 2.1677,-2.55729 2.475,-3.08357 5.3865,-9.22684 3.0818,-6.50237 3.0922,-6.51959 5.4205,-8.98275 1.8362,-1.94242 2.3856,-2.38617 2.5804,-2.08409 0.1362,0.21108 0.9869,1.62536 1.8906,3.14284 l 1.643,2.75906 -1.2932,3.72324 c -0.7113,2.04778 -2.5647,6.75933 -4.1186,10.47011 l -2.8253,6.74687 2.6557,0.0759 2.6557,0.0759 1.5052,-1.48948 c 1.3187,-1.30494 1.7095,-1.95958 3.1541,-5.28375 l 1.6488,-3.79427 5.697,-2.93615 c 3.1333,-1.61488 5.7312,-2.90191 5.7731,-2.86006 0.042,0.0419 0.7314,1.19677 1.5323,2.56649 l 1.4562,2.49041 -1.7956,2.00559 c -1.5564,1.73833 -4.9693,6.56813 -6.5044,9.20466 l -0.4943,0.84907 1.284,1.86228 c 1.5698,2.27683 1.8898,2.40116 6.7548,2.62514 2.1433,0.0987 3.5547,0.27027 3.529,0.42903 -0.024,0.14552 -0.887,3.00178 -1.9188,6.34723 l -1.876,6.08266 0.6838,2.05328 c 0.7666,2.30191 0.5639,2.19998 3.6169,1.81858 0.8367,-0.10453 1.5213,-0.15449 1.5213,-0.11102 0,0.0435 -0.663,1.736 -1.4733,3.76118 l -1.4733,3.68214 -2.7392,2.33818 -2.7391,2.33819 -2.2958,4.44992 c -1.2626,2.44746 -2.2543,4.48502 -2.2037,4.52791 0.051,0.0429 1.7783,0.6364 3.8391,1.31891 l 3.7469,1.24092 -1.8267,2.9541 -1.8266,2.95411 0.7228,0.57635 c 0.7921,0.63161 2.174,0.89548 4.6897,0.89548 1.6028,0 1.6578,0.0239 2.5189,1.09548 l 0.8804,1.09547 -0.5216,5.84984 -0.5215,5.84984 1.5375,3.26942 c 0.8457,1.79819 1.5376,3.3833 1.5376,3.52247 0,0.13918 -0.4957,1.44756 -1.1016,2.90751 l -1.1016,2.65446 -4.733,3.162393 c -3.5954,2.40233 -4.7029,3.27062 -4.6077,3.61266 0.9815,3.52513 0.7654,3.21108 3.7099,5.3911 l 2.7425,2.03044 -3.3951,11.02374 c -1.8672,6.06306 -3.6193,11.40014 -3.8934,11.86019 -0.2741,0.46005 -2.298,3.78336 -4.4975,7.38514 -4.3011,7.04308 -4.1804,6.89937 -11.5199,13.70852 l -1.2777,1.18533 0.902,1.97873 c 0.6333,1.38913 1.5856,2.75883 3.1959,4.59679 1.2616,1.43994 2.2975,2.74962 2.302,2.91042 0,0.16079 -2.4529,7.10175 -5.4607,15.42435 l -5.4688,15.132 -5.8502,7.11619 -5.8503,7.1162 -5.6782,3.01951 -5.6781,3.01952 -1.3652,2.98225 c -1.1994,2.62012 -1.7147,3.38272 -4.2437,6.28039 -1.5832,1.81395 -2.9976,3.2988 -3.1431,3.29962 -0.1455,0 -3.3481,-0.41434 -7.1168,-0.92258 -3.7688,-0.50824 -7.162,-0.92429 -7.5407,-0.92461 -0.7474,0 -13.9959,5.1808 -14.474,5.66068 -0.1606,0.16116 -0.8589,1.90034 -1.552,3.86487 -0.693,1.96454 -1.2831,3.59881 -1.3113,3.63175 -0.028,0.0329 -1.4135,-0.17626 -3.0783,-0.4649 -2.7173,-0.47109 -3.054,-0.48283 -3.2915,-0.11496 -0.1455,0.2254 -0.8108,1.26998 -1.4784,2.3213 -1.1978,1.88621 -1.2707,1.94559 -5.5114,4.48686 -2.3636,1.41647 -4.3885,2.57537 -4.4997,2.57537 -0.1665,0 -9.5595,-2.7241 -11.3238,-3.28409 -0.4634,-0.14705 -0.6978,0.32285 -2.1972,4.40402 -0.9232,2.51272 -1.7131,4.61539 -1.7553,4.67257 -0.042,0.0572 -1.3596,-0.26824 -2.9274,-0.72319 l -2.8506,-0.82714 -5.1978,-5.36223 c -2.8588,-2.94923 -5.2513,-5.3027 -5.3167,-5.22994 -0.065,0.0728 -1.0876,2.48034 -2.2716,5.35019 -2.1299,5.16245 -2.1628,5.27722 -3.0906,10.79947 l -0.9377,5.58158 5.2322,5.09349 c 7.5664,7.36573 6.6669,6.71727 12.1114,8.73181 l 4.7625,1.7622 2.7781,2.76124 2.7782,2.76125 23.4156,12.34834 c 12.8786,6.79156 23.5546,12.48159 23.7244,12.64447 0.1698,0.1629 1.041,2.20117 1.936,4.5295 1.5727,4.09173 1.7233,4.35986 4.5033,8.01603 l 2.8762,3.7827 -0.6709,1.77355 c -0.369,0.97547 -0.8685,2.30167 -1.1099,2.94714 l -0.4391,1.17359 -3.2705,0.77219 -3.2705,0.77216 0.135,1.09696 c 0.074,0.6033 0.2815,2.10897 0.4606,3.34589 l 0.3255,2.24896 -2.2503,5.15938 -2.2504,5.15937 -6.8144,2.30947 -6.8145,2.30949 -4.1228,-0.92363 -4.1229,-0.92361 -2.658,2.64904 c -1.462,1.45695 -2.7492,2.64903 -2.8605,2.64903 -0.1113,0 -1.7593,-1.25015 -3.6622,-2.77812 -1.9029,-1.52797 -3.5472,-2.77813 -3.654,-2.77813 -0.1068,0 -0.5193,1.05995 -0.9167,2.35546 -0.8391,2.73515 -0.1072,2.38723 -6.5047,3.0921 -2.2555,0.2485 -4.1218,0.46482 -4.1471,0.4807 -0.025,0.0159 -0.3112,1.54601 -0.6352,3.40032 -0.3241,1.85428 -0.6801,3.37142 -0.7912,3.37142 -0.1112,0 -1.1383,-0.35748 -2.2825,-0.79441 l -2.0804,-0.79444 -3.4249,-4.09448 c -1.8838,-2.25197 -3.4984,-4.00785 -3.5882,-3.90194 -0.09,0.10591 -2.0925,2.48065 -4.4505,5.27722 -2.358,2.79657 -4.3734,5.13787 -4.4786,5.20287 -0.1052,0.065 -3.1003,-1.66904 -6.6556,-3.85349 l -6.4644,-3.97169 -5.0408,0.30091 c -2.7724,0.1655 -5.3753,0.35404 -5.7841,0.41899 -0.7255,0.11528 -0.7939,0.0124 -2.8578,-4.30167 -1.1629,-2.43089 -2.1635,-4.46884 -2.2235,-4.5288 -0.06,-0.06 -3.6982,0.10097 -8.0849,0.35767 -5.1154,0.29932 -8.0367,0.37449 -8.1456,0.20958 -1.1104,-1.68101 -12.5734,-17.01173 -12.7199,-17.01173 -0.1091,0 -0.9316,0.76361 -1.8278,1.69687 -1.1937,1.24307 -1.633,1.89762 -1.6425,2.4474 -0.034,1.92707 -1.4957,14.13822 -1.719,14.35502 -0.1388,0.13481 -2.3006,1.08778 -4.804,2.1177 l -4.5517,1.87259 h -10.4584 -10.4584 l -0.1292,0.59531 c -0.071,0.32742 -0.4338,3.51235 -0.8062,7.07761 -0.3723,3.56526 -0.7221,6.61204 -0.7773,6.77066 -0.069,0.19828 -1.0792,0.10943 -3.2337,-0.28438 l -3.1334,-0.57277 -2.891,0.96285 -2.8909,0.96282 -1.7393,4.14927 c -1.7119,4.08406 -1.7727,4.18261 -3.8642,6.27311 l -2.125,2.12389 -4.225,0.52031 c -2.3238,0.28614 -4.4421,0.52144 -4.7074,0.52287 -0.3231,0.003 0.5883,-1.12903 2.7615,-3.42615 z m -1799.32916,-9.80241 c -15.20449,-1.10199 -26.8334,-4.03963 -34.79271,-8.78914 -9.51354,-5.67698 -14.9566,-14.5261 -16.83961,-27.37715 -0.67546,-4.60973 -0.60955,-12.53356 0.14562,-17.51386 1.71601,-11.31657 5.6691,-21.52473 12.04992,-31.1168 8.14263,-12.2405 18.1093,-21.21424 31.36699,-28.24197 18.37285,-9.73923 42.60554,-12.51924 73.025,-8.3775 3.79741,0.51702 11.86998,1.86219 14.28996,2.38117 l 1.25336,0.26879 -0.37568,1.90352 c -0.76989,3.90064 -2.71817,15.84028 -3.43048,21.023 -0.46138,3.35674 -0.83953,5.31674 -1.01148,5.2424 -1.45629,-0.62966 -9.95503,-3.26684 -12.44547,-3.86186 -7.95917,-1.90167 -14.79685,-2.72307 -22.88646,-2.74939 -7.16058,-0.0233 -9.89137,0.27469 -15.85343,1.72982 -17.77186,4.33747 -30.75716,16.3786 -36.35106,33.70797 -1.53323,4.74977 -2.06131,7.70728 -2.21916,12.42822 -0.21387,6.39638 0.68654,10.33415 3.24191,14.17799 4.72358,7.10525 16.02621,10.65514 29.08903,9.13616 4.46956,-0.51972 10.64533,-1.71688 11.06977,-2.14582 0.40357,-0.40785 4.79547,-18.09128 4.55332,-18.33343 -0.10247,-0.10247 -3.62982,-0.22987 -7.83854,-0.2831 -4.20876,-0.0532 -7.65226,-0.17042 -7.65226,-0.26038 0,-0.09 1.12755,-4.69048 2.50569,-10.22334 1.37813,-5.53286 2.69314,-10.95272 2.92227,-12.04413 l 0.41656,-1.98437 h 25.78505 c 14.18177,0 25.78502,0.0512 25.78502,0.11369 0,0.0625 -0.70908,2.62237 -1.57575,5.68854 -3.3513,11.85656 -10.46951,39.67496 -13.91754,54.39048 -0.83537,3.56526 -1.54924,6.52047 -1.58633,6.56712 -0.27697,0.34821 -16.65068,2.69523 -23.26934,3.33544 -12.10821,1.1712 -28.3337,1.724 -35.45417,1.20793 z m 413.94063,0.11303 c -0.65484,-0.0535 -2.79797,-0.22752 -4.7625,-0.38677 -5.98133,-0.48487 -16.95151,-2.02491 -22.68833,-3.18508 -1.23593,-0.24995 -1.37438,-0.34465 -1.25363,-0.85746 0.45757,-1.94315 3.30446,-26.9638 3.30446,-29.0421 0,-0.10046 1.29114,0.39346 2.86922,1.09763 5.38734,2.40395 10.31682,4.05378 14.95383,5.00488 10.08367,2.0683 18.33359,1.70191 24.15373,-1.0727 3.90481,-1.86153 5.64822,-4.37197 5.64822,-8.13316 0,-1.48439 -0.14964,-2.09283 -0.89228,-3.6281 -1.09109,-2.25554 -1.44555,-2.65993 -12.84131,-14.64908 -11.49556,-12.0941 -13.3718,-14.38952 -15.63957,-19.13337 -1.69032,-3.53594 -2.18845,-5.81533 -2.21404,-10.13092 -0.0317,-5.34734 0.96025,-9.5051 3.47173,-14.55208 5.02044,-10.08891 13.88655,-17.46367 25.73481,-21.40604 7.27776,-2.4216 12.97532,-3.17828 23.81191,-3.16238 8.07845,0.0119 12.73816,0.34359 20.24063,1.44111 3.81272,0.55774 10.18029,1.734 10.36008,1.91376 0.0557,0.0557 -0.31261,3.00611 -0.81852,6.5564 -0.50593,3.55028 -1.2288,9.55069 -1.60642,13.33423 -0.37761,3.78354 -0.74316,7.25466 -0.81232,7.71361 l -0.12578,0.83447 -2.50418,-1.02283 c -9.35521,-3.82111 -20.23676,-5.55363 -27.27851,-4.34321 -3.04234,0.52292 -4.53105,1.01031 -7.05914,2.31105 -5.85925,3.01464 -7.30724,7.84016 -3.92356,13.07539 1.73763,2.68844 4.38034,5.46569 11.96409,12.57314 3.9887,3.73822 8.02608,7.70805 8.97197,8.82189 7.3855,8.69691 10.15031,15.48562 9.26528,22.75002 -1.45584,11.95006 -9.34196,23.08823 -21.03924,29.71538 -6.53611,3.70308 -13.57207,5.90055 -22.62188,7.06527 -3.10179,0.39923 -13.91689,0.72171 -16.66875,0.49705 z m 214.84167,0 c -0.65484,-0.0535 -2.79797,-0.22752 -4.7625,-0.38677 -5.98133,-0.48487 -16.95151,-2.02491 -22.68834,-3.18508 -1.23592,-0.24995 -1.37437,-0.34465 -1.25362,-0.85746 0.45757,-1.94315 3.30446,-26.9638 3.30446,-29.0421 0,-0.10046 1.29114,0.39346 2.86922,1.09763 5.38734,2.40395 10.31682,4.05378 14.95383,5.00488 10.08367,2.0683 18.33359,1.70191 24.15373,-1.0727 3.9048,-1.86153 5.64822,-4.37197 5.64822,-8.13316 0,-1.48439 -0.14964,-2.09283 -0.89228,-3.6281 -1.09109,-2.25554 -1.44555,-2.65993 -12.84131,-14.64908 -11.49557,-12.0941 -13.37181,-14.38952 -15.63958,-19.13337 -1.69031,-3.53594 -2.18844,-5.81533 -2.21403,-10.13092 -0.0317,-5.34734 0.96025,-9.5051 3.47173,-14.55208 5.02044,-10.08891 13.88655,-17.46367 25.73481,-21.40604 7.27776,-2.4216 12.975317,-3.17828 23.81191,-3.16238 8.078444,0.0119 12.738153,0.34359 20.240625,1.44111 3.812726,0.55774 10.180294,1.734 10.360078,1.91376 0.05572,0.0557 -0.312605,3.00611 -0.818515,6.5564 -0.505936,3.55028 -1.228804,9.55069 -1.606417,13.33423 -0.377614,3.78354 -0.743162,7.25466 -0.812324,7.71361 l -0.125783,0.83447 -2.504176,-1.02283 c -9.355217,-3.82111 -20.236762,-5.55363 -27.278515,-4.34321 -3.042338,0.52292 -4.531043,1.01031 -7.059136,2.31105 -5.859247,3.01464 -7.307237,7.84016 -3.923557,13.07539 1.73763,2.68844 4.380333,5.46569 11.964085,12.57314 3.9887,3.73822 8.026083,7.70805 8.971968,8.82189 7.3855,8.69691 10.150317,15.48562 9.265286,22.75002 -1.455844,11.95006 -9.341962,23.08823 -21.039244,29.71538 -6.536108,3.70308 -13.572065,5.90055 -22.621875,7.06527 -3.10179,0.39923 -13.91689,0.72171 -16.66875,0.49705 z m 496.35834,0 c -0.65484,-0.0535 -2.79797,-0.22752 -4.7625,-0.38677 -5.98133,-0.48487 -16.95151,-2.02491 -22.68834,-3.18508 -1.23592,-0.24995 -1.37437,-0.34465 -1.25362,-0.85746 0.45757,-1.94315 3.30446,-26.9638 3.30446,-29.0421 0,-0.10046 1.29114,0.39346 2.86922,1.09763 5.38734,2.40395 10.31682,4.05378 14.95383,5.00488 10.08367,2.0683 18.33359,1.70191 24.15373,-1.0727 3.9048,-1.86153 5.64822,-4.37197 5.64822,-8.13316 0,-1.48439 -0.14964,-2.09283 -0.89228,-3.6281 -1.09109,-2.25554 -1.44555,-2.65993 -12.84131,-14.64908 -11.49557,-12.0941 -13.3718,-14.38952 -15.63958,-19.13337 -1.69031,-3.53594 -2.18844,-5.81533 -2.21403,-10.13092 -0.0317,-5.34734 0.96025,-9.5051 3.47173,-14.55208 5.02044,-10.08891 13.88655,-17.46367 25.73481,-21.40604 7.27776,-2.4216 12.97532,-3.17828 23.81191,-3.16238 8.07845,0.0119 12.73816,0.34359 20.24063,1.44111 3.81272,0.55774 10.18029,1.734 10.36008,1.91376 0.0557,0.0557 -0.31261,3.00611 -0.81852,6.5564 -0.50593,3.55028 -1.2288,9.55069 -1.60642,13.33423 -0.37761,3.78354 -0.74316,7.25466 -0.81232,7.71361 l -0.12578,0.83447 -2.50418,-1.02283 c -9.35521,-3.82111 -20.23676,-5.55363 -27.27851,-4.34321 -3.04234,0.52292 -4.53105,1.01031 -7.05914,2.31105 -5.85925,3.01464 -7.30724,7.84016 -3.92356,13.07539 1.73763,2.68844 4.38034,5.46569 11.96409,12.57314 3.9887,3.73822 8.02608,7.70805 8.97197,8.82189 7.3855,8.69691 10.15031,15.48562 9.26528,22.75002 -1.45584,11.95006 -9.34196,23.08823 -21.03924,29.71538 -6.53611,3.70308 -13.57207,5.90055 -22.62188,7.06527 -3.10179,0.39923 -13.91689,0.72171 -16.66875,0.49705 z m 436.82709,-0.0299 c -6.28978,-0.36971 -14.27281,-1.80081 -19.71146,-3.53365 -12.43954,-3.96343 -22.93609,-12.43703 -27.62313,-22.29948 -4.45794,-9.3804 -4.83833,-22.34554 -1.0881,-37.08656 2.68848,-10.5677 7.87569,-21.05012 14.46649,-29.23421 10.73166,-13.32601 27.30378,-23.56475 45.20099,-27.92659 14.3505,-3.49742 27.16986,-4.11538 43.25938,-2.08529 5.67005,0.71541 13.94018,2.05746 14.18452,2.3018 0.0853,0.0853 -0.26463,2.63374 -0.77766,5.66322 -0.51303,3.02948 -1.4365,9.13956 -2.05219,13.57794 -0.61568,4.43839 -1.1304,8.08927 -1.14382,8.11308 -0.0135,0.0238 -1.45314,-0.3016 -3.19939,-0.72313 -20.4388,-4.93364 -33.99729,-4.49438 -46.69362,1.51272 -5.43716,2.57252 -9.46628,5.38002 -13.46713,9.38388 -5.68322,5.68745 -9.46989,11.77507 -11.7485,18.88741 -1.61028,5.02624 -1.89797,6.8652 -1.90405,12.17083 -0.006,5.54877 0.37486,7.34285 2.38871,11.24204 3.56714,6.90666 9.89793,11.18484 19.03709,12.86481 3.64463,0.66995 13.96611,0.67792 19.44687,0.0151 6.20043,-0.74996 12.64283,-1.94079 20.04219,-3.70467 0.90951,-0.21682 1.65365,-0.35766 1.65365,-0.31297 0,0.0447 -1.17626,3.21903 -2.61393,7.05413 -2.77857,7.4121 -6.65972,18.399 -7.15981,20.26823 -0.16544,0.61846 -0.32686,1.12448 -0.35869,1.12448 -0.0319,0 -2.14062,0.29167 -4.68617,0.64815 -12.70154,1.77874 -26.64656,2.59643 -35.45224,2.07883 z m -1896.86487,-6.936 c 6.3931,-21.15849 13.2414,-48.19034 22.2743,-87.92144 1.7497,-7.69591 5.5739,-25.69073 5.5739,-26.22804 0,-0.0251 20.8345,-0.0448 46.2989,-0.044 41.40273,0 46.28535,0.0442 46.17065,0.40558 -0.39866,1.25613 -4.46876,16.98979 -5.43191,20.99794 l -1.1374,4.73334 -2.53502,-0.17118 c -4.3269,-0.29218 -36.53622,-0.47247 -44.32002,-0.24808 l -7.3891,0.21302 -2.3741,9.99231 c -1.3058,5.49576 -2.2868,10.07967 -2.18,10.18646 0.1068,0.10678 10.3107,0.19415 22.6753,0.19415 22.35631,0 22.48021,0.003 22.32621,0.52916 -0.46443,1.58692 -4.20591,17.03938 -5.02741,20.76339 -0.5289,2.39755 -0.9843,4.36933 -1.0121,4.38171 -0.028,0.0124 -2.7889,-0.0634 -6.1359,-0.16848 -11.09,-0.34804 -39.2152,-0.13777 -39.6489,0.29644 -0.2261,0.22632 -7.1913,31.01789 -8.8567,39.15299 l -1.5436,7.54062 -19.5667,0.0243 -19.5668,0.0243 1.4064,-4.65452 z m 107.48776,4.56816 c 0,-0.0206 1.29973,-4.36652 2.88827,-9.65729 10.07384,-33.55163 21.30017,-77.76887 27.29825,-107.51984 l 0.32095,-1.59195 19.40352,0.005 c 17.12418,0.004 19.38915,0.0511 19.28121,0.40132 -1.00865,3.273 -9.79023,37.00195 -14.7761,56.75313 -6.98102,27.65483 -8.84533,35.47247 -8.53362,35.78426 0.26496,0.265 40.16067,0.25619 47.9422,-0.0106 l 6.11529,-0.20965 -3.57236,13.04195 -3.57237,13.04194 h -46.39762 c -25.51869,-5e-5 -46.39762,-0.017 -46.39762,-0.0378 z m 108.2765,-6.55944 c 6.08619,-22.43797 14.05821,-53.56966 17.92509,-69.99971 3.66474,-15.57115 5.61434,-24.67483 8.75656,-40.88886 l 0.25846,-1.33369 19.57978,-0.003 c 15.30186,-0.003 19.55271,0.0684 19.4559,0.3207 -0.21484,0.55986 -5.86862,21.3913 -7.53118,27.74878 -6.49925,24.85248 -15.85018,65.28025 -20.65836,89.31429 l -0.29461,1.47262 h -19.64526 -19.64527 l 1.79889,-6.632 z m 199.98516,5.94608 c 0.12112,-0.36951 3.07316,-11.20886 6.56008,-24.08745 9.89235,-36.53645 17.57616,-68.52589 22.2768,-92.74334 l 0.25813,-1.3298 19.44042,0.005 c 10.69224,0.003 19.44042,0.0379 19.44042,0.0782 0,0.0403 -0.88403,3.25589 -1.9645,7.14571 -3.59924,12.95752 -9.41258,35.58141 -9.41258,36.63101 0,0.11385 10.65276,0.20701 23.67282,0.20701 h 23.6728 l 0.3991,-1.38906 c 1.82462,-6.35075 8.15017,-34.43531 9.1693,-40.71046 l 0.32729,-2.01512 19.47563,0.022 19.47564,0.022 -2.06741,7.68162 c -12.49973,46.44422 -18.17393,69.85741 -24.65638,101.73864 l -1.91032,9.39507 -19.73093,0.0167 -19.73091,0.0167 0.25845,-0.67805 c 0.96157,-2.5228 6.8871,-24.3619 9.08698,-33.49103 1.23727,-5.1344 3.30377,-13.92346 3.30377,-14.05123 0,-0.0546 -10.69171,-0.0993 -23.75937,-0.0993 h -23.75937 l -5.56491,24.14323 -5.56492,24.14323 -19.45815,0.0103 -19.45812,0.0103 0.22024,-0.67183 z m 172.93378,-0.5213 c 6.33625,-20.8774 13.37358,-47.63985 19.35459,-73.60402 3.27205,-14.20434 4.13036,-18.19286 3.95312,-18.37013 -0.0761,-0.076 -8.39047,0.10266 -18.47652,0.39712 -10.08602,0.29448 -18.40124,0.47236 -18.47826,0.39534 -0.077,-0.077 0.25156,-1.71262 0.73022,-3.63464 1.04347,-4.18999 4.31387,-18.03582 4.91887,-20.82482 l 0.43045,-1.98438 55.76163,-0.0358 55.76162,-0.0358 -1.52961,5.85666 c -0.84126,3.22117 -2.20014,8.77369 -3.01971,12.33895 -0.81955,3.56526 -1.60227,6.93719 -1.73932,7.49316 l -0.24921,1.01084 -2.29986,-0.16137 c -6.12252,-0.42958 -13.31447,-0.69019 -23.33427,-0.8455 l -10.98021,-0.17021 -0.43,1.56208 c -6.09605,22.14462 -9.20189,34.29645 -14.09306,55.14017 -2.35326,10.0284 -6.27234,27.5654 -7.57007,33.87418 l -0.57301,2.78567 -19.25211,0.0106 -19.25215,0.0106 0.36687,-1.20883 z m 257.18594,-0.79516 c 2.69988,-8.50196 10.38799,-37.0128 11.83272,-43.88085 l 0.40119,-1.90712 -12.73035,-35.2566 c -7.00167,-19.39116 -12.77647,-35.37741 -12.83285,-35.52505 -0.0688,-0.18008 6.68734,-0.26715 20.5327,-0.26458 l 20.63525,0.004 0.56092,2.51354 c 1.11019,4.97502 2.43416,10.05576 4.61938,17.72709 2.00801,7.04924 4.26556,15.8815 5.19711,20.33278 l 0.35152,1.67965 5.68855,-7.36386 c 3.12869,-4.05013 9.55288,-12.18784 14.27596,-18.08382 4.72308,-5.89597 9.64798,-12.08667 10.9442,-13.75706 l 2.35675,-3.0371 20.44454,-0.0122 20.44454,-0.0122 -2.83001,3.18151 c -3.39553,3.81732 -47.38484,53.89004 -52.30442,59.53778 -1.90141,2.18281 -4.77714,5.55157 -6.39051,7.48615 l -2.93344,3.5174 -2.81302,11.43156 c -2.55715,10.39172 -7.26062,30.45047 -7.67564,32.73409 l -0.16897,0.92961 h -19.11659 -19.11662 l 0.62709,-1.97469 z m 215.889068,0.79516 c 6.336241,-20.8774 13.373575,-47.63985 19.354588,-73.60402 3.272049,-14.20434 4.130357,-18.19286 3.953113,-18.37013 -0.07604,-0.076 -8.390467,0.10266 -18.476515,0.39712 -10.086023,0.29448 -18.401242,0.47236 -18.478262,0.39534 -0.07702,-0.077 0.251566,-1.71262 0.730223,-3.63464 1.043464,-4.18999 4.313873,-18.03582 4.918869,-20.82482 l 0.430451,-1.98438 55.761625,-0.0358 55.761629,-0.0358 -1.52961,5.85666 c -0.84127,3.22117 -2.20014,8.77369 -3.01972,12.33895 -0.81954,3.56526 -1.60226,6.93719 -1.73932,7.49316 l -0.24921,1.01084 -2.299861,-0.16137 c -6.122512,-0.42958 -13.314469,-0.69019 -23.334266,-0.8455 l -10.980209,-0.17021 -0.430001,1.56208 c -6.096053,22.14462 -9.201891,34.29645 -14.093058,55.14017 -2.3532558,10.0284 -6.2723438,27.5654 -7.5700718,33.87418 l -0.573009,2.78567 -19.2521152,0.0106 -19.252141,0.0106 0.366871,-1.20883 z m 86.864984,1.10418 c 0,-0.052 1.124876,-3.92745 2.49973,-8.61211 6.541347,-22.28913 10.567827,-37.54062 17.441387,-66.06447 5.19343,-21.55164 7.44032,-31.39115 8.87862,-38.88124 l 0.98835,-5.14683 48.595981,-0.0124 c 26.72775,-0.007 48.59594,0.0568 48.59594,0.14142 0,0.0846 -1.18372,4.7629 -2.63049,10.39609 -1.44677,5.63319 -2.8978,11.43931 -3.22448,12.90249 l -0.59396,2.66033 -2.79482,-0.16753 c -5.03275,-0.30166 -22.45617,-0.67258 -31.36979,-0.66781 -8.65267,0.004 -24.4442,0.4014 -24.66243,0.61965 -0.0624,0.0624 -1.21875,4.51226 -2.56974,9.88862 l -2.45631,9.77519 4.12861,0.17124 c 6.11169,0.25349 24.15789,0.2037 35.58853,-0.0982 5.51577,-0.14568 10.07213,-0.2214 10.12526,-0.1683 0.0531,0.0531 -0.61071,2.7038 -1.47513,5.89044 -0.86442,3.18662 -2.30371,8.65135 -3.19837,12.14385 -0.89469,3.4925 -1.73678,6.77696 -1.87134,7.29882 l -0.24466,0.94882 -18.72076,-0.007 c -16.32542,-0.006 -31.09267,0.33901 -31.48973,0.73604 -0.0956,0.0957 -5.321771,20.64849 -5.347601,21.03054 -0.0249,0.36807 47.559811,-0.51527 55.800741,-1.03581 2.24515,-0.14182 4.13393,-0.20601 4.19732,-0.14261 0.0634,0.0634 -0.84733,3.66363 -2.0238,8.00055 -1.17644,4.33691 -2.74981,10.26657 -3.49633,13.17699 l -1.35734,5.29166 -48.65669,0.0132 c -26.761181,0.007 -48.656698,-0.0295 -48.656698,-0.0815 z M 168.98216,372.9525 c 0,-0.10245 1.30091,-4.21267 2.89089,-9.13381 4.16468,-12.89005 19.45093,-66.1552 25.66483,-89.42943 2.92102,-10.94076 5.31095,-19.93189 5.31095,-19.98025 0,-0.0484 10.86445,-0.0861 24.14323,-0.0838 l 24.14323,0.004 1.9e-4,9.26049 c 1.5e-4,7.09557 0.13888,11.08525 0.59346,17.06573 0.97488,12.82568 1.12336,17.15432 1.12479,32.78984 l 0.003,14.93047 6.46081,-12.94609 c 7.05212,-14.13106 10.51689,-20.57223 19.48804,-36.22943 3.25181,-5.67531 7.54708,-13.5908 9.54508,-17.58997 l 3.63276,-7.2712 24.62207,-0.005 c 13.54214,-0.003 24.62207,0.0172 24.62207,0.0444 0,0.0271 -1.29759,5.20628 -2.88356,11.50937 -7.64609,30.38782 -20.0402,85.33554 -23.08685,102.35261 l -0.87778,4.90281 -16.28249,-0.008 -16.28246,-0.008 0.61439,-2.24896 c 1.86478,-6.82593 9.67682,-39.45543 14.22106,-59.39895 2.29058,-10.05277 4.92141,-23.2622 4.55817,-22.88646 -0.0704,0.0728 -4.6015,8.70479 -10.06925,19.18229 -5.46772,10.4775 -15.47448,29.46797 -22.2372,42.20104 l -12.29587,23.15104 -16.162,0.009 -16.16199,0.009 -0.003,-2.52293 c -0.006,-7.25726 -1.12834,-47.47046 -1.6071,-57.55627 -0.30393,-6.40292 -0.5479,-14.48385 -0.54216,-17.95759 0.006,-3.47377 -0.0299,-6.27173 -0.0792,-6.21771 -0.0493,0.054 -1.64272,5.45603 -3.54092,12.00447 -3.5433,12.22369 -15.52956,58.20764 -17.52124,67.21829 l -1.11432,5.04119 -15.44556,-0.008 c -8.49561,-0.004 -15.44611,-0.0921 -15.44611,-0.19452 z m 366.77442,-6.42228 c 6.08619,-22.43797 14.05821,-53.56966 17.9251,-69.99971 3.66472,-15.57115 5.61433,-24.67483 8.75654,-40.88886 l 0.25848,-1.33369 19.57977,-0.003 c 15.30186,-0.003 19.55271,0.0684 19.4559,0.3207 -0.21484,0.55986 -5.86862,21.3913 -7.53118,27.74878 -6.49925,24.85248 -15.85018,65.28025 -20.65835,89.31429 l -0.29461,1.47262 h -19.64526 -19.64529 l 1.7989,-6.632 z m 62.1719,-2.11926 c 2.9206,-9.85319 16.82618,-64.05192 21.76034,-84.81378 1.78107,-7.49432 3.75317,-16.24626 4.38245,-19.44878 l 1.14417,-5.82274 22.38734,0.003 22.38735,0.003 12.10046,34.52813 c 6.65525,18.99047 12.65126,36.31406 13.32444,38.49688 0.67321,2.18281 1.30765,4.06394 1.40991,4.18028 0.45202,0.5143 15.29075,-61.11478 18.23882,-75.75039 l 0.29318,-1.45553 17.06052,-0.0135 c 10.16492,-0.008 17.06055,0.0846 17.06055,0.22897 0,0.13329 -1.71654,6.39027 -3.81456,13.90435 -4.30651,15.42399 -20.89935,80.46022 -23.56794,92.37552 -0.96147,4.29286 -1.98321,8.81724 -2.27058,10.05416 l -0.52247,2.24896 -21.9511,0.008 -21.95111,0.008 -1.62475,-4.90334 c -0.89363,-2.69685 -4.59949,-12.58287 -8.23524,-21.96896 -8.93019,-23.05418 -13.76518,-36.24464 -16.62004,-45.34165 -0.84206,-2.68322 -1.20718,-3.53679 -1.35823,-3.175 -0.51078,1.22341 -10.84914,44.4369 -14.13905,59.09998 l -3.65085,16.27187 -17.21803,0.0148 -17.21805,0.0148 2.59247,-8.74607 z m 266.21172,2.52754 c 0.85404,-3.43559 2.53118,-10.47324 3.72694,-15.63923 l 2.17416,-9.39271 h 16.53741 16.53742 l -1.40812,5.42644 c -0.77449,2.98456 -2.52828,10.00924 -3.89734,15.61042 l -2.48922,10.18397 -16.36702,0.0288 -16.36705,0.0288 z M -661.01576,222.94669 c -14.62366,-0.72035 -29.21646,-2.97312 -40.08438,-6.18802 -20.69957,-6.12325 -33.09318,-15.6991 -40.58227,-31.35563 -10.13248,-21.18269 -9.18887,-52.32473 2.40898,-79.50479 8.46119,-19.829223 22.15854,-37.908923 38.97164,-51.440363 12.71429,-10.23264 27.78334,-18.49641 42.93384,-23.54464 26.21245,-8.73413 60.06896,-10.50592 98.61365,-5.16068 7.91263,1.09729 24.81326,4.06449 25.16732,4.41856 0.041,0.041 -0.39759,2.57078 -0.9747,5.62169 -1.91812,10.14044 -4.75538,28.19841 -5.79776,36.90022 -0.1656,1.38245 -0.34877,2.65894 -0.40706,2.83665 -0.077,0.23486 -0.56769,0.1493 -1.79665,-0.31328 -0.92988,-0.35 -4.22535,-1.48208 -7.32327,-2.51573 -8.50953,-2.83927 -14.25832,-4.26583 -23.42029,-5.81171 -22.43031,-3.78465 -40.40827,-2.9997 -57.58576,2.51429 -16.98626,5.4526 -31.7595,16.37878 -41.47442,30.674163 -7.39807,10.88613 -12.29741,23.40858 -14.23361,36.38021 -0.64267,4.30563 -0.62878,12.92943 0.0267,16.53645 1.39671,7.68663 3.77356,12.55279 8.33564,17.06563 2.5948,2.56679 4.91093,4.18623 8.70038,6.08329 12.23234,6.12373 28.7755,6.88064 50.04271,2.28964 1.62557,-0.35091 3.02188,-0.70435 3.10295,-0.78542 0.0811,-0.0811 1.84399,-6.93049 3.91758,-15.22093 l 3.77015,-15.07352 -1.21869,-0.14702 c -0.67027,-0.0809 -6.42766,-0.22725 -12.7942,-0.32532 -6.61323,-0.10186 -11.57552,-0.28112 -11.57552,-0.41814 0,-0.13191 1.54607,-6.27669 3.43567,-13.65506 2.62924,-10.26635 6.08936,-24.90771 6.08933,-25.76688 0,-0.0461 18.87273,-0.0838 41.93937,-0.0838 27.85089,0 41.90529,0.0889 41.83788,0.26459 -0.2871,0.74828 -3.85548,13.47998 -5.85835,20.90208 -6.14813,22.78318 -17.52778,68.14294 -21.28632,84.848 -0.53432,2.37483 -0.62857,2.57339 -1.28635,2.7102 -1.71696,0.35709 -13.96156,2.31351 -18.99756,3.03539 -23.35265,3.34747 -54.1189,5.14007 -72.59658,4.22985 z m -436.43864,-3.88042 c 0.071,-0.18603 1.9866,-6.61541 4.256,-14.2875 3.4433,-11.64082 6.2695,-22.3561 17.0782,-64.74927 14.1623,-55.546333 21.848,-87.255293 25.0111,-103.187503 l 2.0485,-10.31875 h 36.3115 36.31156 l 19.31065,55.03334 c 10.62086,30.268333 20.41448,58.517873 21.7636,62.776763 1.34912,4.25889 2.53645,7.65217 2.6385,7.54062 0.10205,-0.11154 1.26893,-4.42952 2.59307,-9.59551 7.85186,-30.6333 21.09183,-86.303813 25.99878,-109.317913 l 1.37252,-6.4373 h 27.739 c 15.25646,0 27.739,0.0466 27.73899,0.10352 0,0.0569 -2.67352,9.64146 -5.94116,21.29896 -8.28577,29.56004 -33.24817,127.526963 -39.13308,153.580933 l -4.02528,17.8209 -35.60997,0.0385 -35.60997,0.0385 -0.72711,-2.24896 c -2.90304,-8.97917 -6.97967,-19.98819 -15.82901,-42.74652 -10.03101,-25.79732 -13.6534,-35.31905 -16.80339,-44.1691 -0.8805,-2.47386 -2.5755,-7.23636 -3.7667,-10.58334 -1.8085,-5.08174 -4.706,-13.74758 -7.2983,-21.828123 -0.3224,-1.00481 -0.6141,-1.55479 -0.7016,-1.32291 -0.825,2.18441 -17.4723,71.899013 -22.4291,93.927083 -3.4874,15.49797 -6.3963,28.35672 -6.4643,28.575 -0.1088,0.34949 -3.457,0.39687 -28.0431,0.39687 -22.5575,0 -27.8947,-0.065 -27.7899,-0.33823 z m 238.26572,0.25583 c 0,-0.0453 1.65759,-6.23657 3.68354,-13.75833 20.02325,-74.34046 33.24292,-128.781133 40.61686,-167.266563 0.96195,-5.02047 1.86764,-9.72344 2.01266,-10.45104 l 0.26366,-1.32292 h 31.74182 c 28.09092,0 31.72825,0.0457 31.62396,0.39688 -0.40238,1.35507 -2.88857,10.37031 -5.39946,19.57916 -11.51165,42.21968 -22.78251,88.642013 -33.4681,137.847923 -2.44668,11.26677 -6.70433,31.51421 -7.17714,34.13125 l -0.1673,0.92604 h -31.86525 c -17.52588,0 -31.86525,-0.0371 -31.86525,-0.0824 z m 325.04872,-0.57906 c 0.0905,-0.3638 4.84786,-17.92552 10.57199,-39.02604 8.57961,-31.62649 11.64121,-43.40653 17.43183,-67.07187 10.07316,-41.167463 15.22534,-64.040073 18.68419,-82.946883 l 0.58084,-3.175 h 31.60686 c 27.96902,0 31.59379,0.0457 31.49335,0.39688 -3.05247,10.6729 -8.28561,29.96799 -11.67275,43.03853 -1.99959,7.71626 -6.29256,25.27069 -6.63763,27.1422 l -0.18296,0.99219 h 38.4719 38.47192 l 2.2981,-9.32657 c 6.61111,-26.83028 10.92165,-46.38349 13.54658,-61.44948 l 0.1383,-0.79375 h 31.62104 c 24.55294,0 31.59369,0.0712 31.49875,0.31873 -0.83208,2.1688 -19.20914,72.08996 -24.32452,92.550023 -6.59127,26.36323 -14.7475,63.07139 -20.66401,93.00104 -0.67604,3.41974 -1.28003,6.39631 -1.34223,6.61459 -0.0997,0.34995 -3.88258,0.39687 -31.99855,0.39687 -17.53701,0 -31.88547,-0.10083 -31.88547,-0.22408 0,-0.12324 0.52912,-1.96871 1.17584,-4.10104 5.4859,-18.08827 12.56749,-45.33228 18.76856,-72.20561 l 0.38158,-1.65364 h -38.55963 -38.55966 l -8.79674,38.16614 c -4.83819,20.99138 -8.90362,38.58287 -9.03427,39.09219 l -0.23752,0.92604 h -31.5051 -31.50508 z m 279.37344,0.34957 c 0.33213,-0.86546 4.69974,-15.71544 7.26207,-24.69123 8.64661,-30.28879 16.79054,-62.07467 24.74312,-96.572923 3.91682,-16.99113 6.62133,-29.34577 6.45943,-29.50766 -0.076,-0.076 -13.63143,0.21951 -30.12313,0.65672 -16.49171,0.43722 -30.03423,0.74563 -30.0945,0.68537 -0.0603,-0.0603 1.20777,-5.51382 2.81787,-12.119 2.50153,-10.26218 5.08883,-21.36074 6.76897,-29.03626 l 0.43436,-1.98438 h 90.47247 c 80.296122,0 90.459218,0.0446 90.35439,0.39688 -1.354402,4.55047 -6.946001,27.16588 -8.733261,35.32187 -0.829125,3.78354 -1.557549,7.0403 -1.618721,7.23724 -0.08689,0.27963 -0.560043,0.32223 -2.159608,0.19448 -7.8282,-0.62524 -35.2213,-1.47237 -47.72424,-1.47588 -9.00679,-0.003 -9.70172,0.0301 -9.82171,0.46031 -0.071,0.25466 -1.32781,4.74927 -2.79283,9.98802 -10.097,36.105193 -23.92569,93.209653 -32.28663,133.324893 l -1.53884,7.38322 -31.26944,0.0251 c -23.90862,0.0192 -31.24129,-0.0483 -31.14977,-0.28678 z m 141.57865,-0.34957 c 0.0905,-0.3638 4.84786,-17.92552 10.57198,-39.02604 8.579618,-31.62649 11.641217,-43.40653 17.431835,-67.07187 10.073164,-41.167463 15.225343,-64.040073 18.684188,-82.946883 l 0.58084,-3.175 h 31.606861 c 27.9690252,0 31.5937902,0.0457 31.4933542,0.39688 -3.052471,10.6729 -8.2856122,29.96799 -11.6727552,43.03853 -1.999589,7.71626 -6.292559,25.27069 -6.637629,27.1422 l -0.182959,0.99219 h 38.471899 38.471925 l 2.298091,-9.32657 c 6.611119,-26.83028 10.921659,-46.38349 13.546589,-61.44948 l 0.1383,-0.79375 h 31.621041 c 24.55294,0 31.59369,0.0712 31.49875,0.31873 -0.83208,2.1688 -19.20914,72.08996 -24.32452,92.550023 -6.59127,26.36323 -14.747511,63.07139 -20.664011,93.00104 -0.67604,3.41974 -1.28003,6.39631 -1.34223,6.61459 -0.0997,0.34995 -3.88258,0.39687 -31.998554,0.39687 -17.537007,0 -31.885467,-0.10083 -31.885467,-0.22408 0,-0.12324 0.529114,-1.96871 1.175835,-4.10104 5.485897,-18.08827 12.567497,-45.33228 18.768563,-72.20561 l 0.381582,-1.65364 H 6.2860042 -32.273657 l -8.796734,38.16614 c -4.838198,20.99138 -8.903627,38.58287 -9.034279,39.09219 l -0.237516,0.92604 h -31.505102 -31.505072 z m 211.368909,0.26459 c 4.693131,-5.57536 25.416301,-33.55145 65.950311,-89.0323 48.06018,-65.782293 58.56322,-80.346113 69.44204,-96.290283 l 4.8619,-7.1257 36.71091,-0.018 c 20.19102,-0.01 36.71094,0.0713 36.71094,0.18056 3e-5,0.10924 1.96829,13.32518 4.37396,29.36876 3.52819,23.52974 6.24133,40.14403 14.03138,85.923263 5.31162,31.21422 10.54661,61.23012 11.63336,66.70199 1.08675,5.47188 1.97591,10.11532 1.97591,10.31876 0,0.31475 -4.80359,0.36986 -32.23424,0.36986 h -32.23424 l -0.44657,-5.46546 c -0.9571,-11.71368 -3.02627,-27.82446 -5.45801,-42.49665 -0.58544,-3.53239 -1.06444,-6.47918 -1.06444,-6.54844 0,-0.0692 -16.06214,-0.12591 -35.69362,-0.12591 h -35.69361 l -4.68866,6.81302 c -6.02784,8.75904 -19.75667,29.40123 -26.42698,39.73478 l -5.19689,8.05092 -33.44376,0.0189 c -29.7012,0.0167 -33.406371,-0.0255 -33.109691,-0.37801 z M 270.31758,122.97685 c 0,-0.28391 -1.00388,-8.35039 -2.23086,-17.92552 -1.22698,-9.575133 -2.72179,-21.397923 -3.32182,-26.272873 -0.59999,-4.87495 -1.15141,-9.15225 -1.22536,-9.50513 -0.11636,-0.55538 -0.3774,-0.271 -1.94284,2.11667 -8.43314,12.86252 -18.35824,27.66596 -26.01902,38.807733 l -9.14151,13.29531 h 21.94071 c 21.58052,0 21.9407,-0.008 21.9407,-0.51619 z m 126.5645,94.44328 c 0.0873,-1.09141 0.2314,-11.09266 0.32028,-22.225 0.1434,-17.96604 0.0395,-26.76707 -0.92417,-78.31667 -0.59716,-31.941823 -1.31918,-64.564953 -1.60451,-72.495833 -0.28532,-7.93089 -0.52154,-15.1937 -0.52493,-16.13959 l -0.006,-1.71979 h 28.852 28.85199 l -0.1469,1.98438 c -0.56123,7.5812 -0.68871,26.96231 -0.39497,60.06042 0.29845,33.631923 0.14965,57.156463 -0.4418,69.849993 -0.0916,1.96453 -0.10552,3.51235 -0.031,3.43959 0.0745,-0.0728 1.94818,-4.29948 4.1638,-9.39271 2.21564,-5.09323 10.70342,-23.84558 18.86175,-41.67188 10.28247,-22.467663 18.24992,-40.357253 25.96967,-58.310513 l 11.13637,-25.89906 32.73851,-0.0301 32.73845,-0.0301 v 0.7891 c 0,0.434 -0.65722,13.82854 -1.46047,29.76563 -1.19981,23.80425 -4.47111,104.217153 -4.24908,104.447593 0.0344,0.0357 2.00742,-4.13153 4.38463,-9.26042 4.94704,-10.67347 11.10014,-23.09587 16.93804,-34.19607 10.89874,-20.722853 34.74178,-67.071633 40.42426,-78.581253 l 6.4008,-12.96458 28.17987,-0.0139 c 15.49892,-0.008 28.17987,0.0116 28.17987,0.0429 0,0.0312 -19.59978,36.76831 -43.55507,81.637903 -24.27912,45.47611 -46.86718,88.12531 -51.03892,96.3681 l -7.48385,14.78702 -37.06799,0.0297 -37.06802,0.0297 0.13346,-1.98438 c 0.29355,-4.36575 0.67884,-22.45823 1.05637,-49.60937 0.53213,-38.26703 0.71202,-42.65232 2.52357,-61.51563 0.28649,-2.98318 0.51602,-5.54302 0.51004,-5.68854 -0.006,-0.14552 -2.30585,5.09323 -5.1108,11.64167 -6.70631,15.65655 -7.87231,18.16931 -30.69389,66.14583 l -19.50791,41.01042 H 432.32951 396.7235 l 0.1587,-1.98438 z m 276.77354,1.67459 c 0.26757,-0.6973 4.59137,-15.34381 6.89917,-23.37043 5.22819,-18.18363 9.92145,-36.07636 19.29328,-73.55416 12.12834,-48.500973 16.8706,-68.509763 20.38197,-85.996633 0.94887,-4.72555 1.78093,-8.83004 1.84901,-9.12108 0.1229,-0.52551 0.34139,-0.52917 31.62073,-0.52917 17.32333,0 31.49698,0.0418 31.49698,0.0928 0,0.051 -6.20483,23.68495 -13.7885,52.51979 -13.09807,49.801793 -14.3138,54.625763 -24.2788,96.337883 l -10.49031,43.9109 -31.55119,0.01 c -23.99771,0.008 -31.52275,-0.0642 -31.43234,-0.29983 z m 130.45609,-1.14543 C 799.34252,202.68226 784.17925,163.7307 767.7587,124.5653 l -2.9338,-6.99753 0.62629,-0.67538 c 0.34446,-0.37147 9.36792,-10.03014 20.05214,-21.463713 23.89571,-25.57174 50.61932,-54.79469 57.49073,-62.86768 l 5.13913,-6.03775 h 29.91493 29.91493 l 1.9e-4,4.85281 1.8e-4,4.8528 -33.03079,33.2472 c -34.62645,34.853293 -46.22361,46.859533 -46.00133,47.623953 0.0703,0.24195 1.73423,4.19038 3.6975,8.77428 2.46194,5.74827 9.25435,19.9924 21.89019,45.90521 10.07634,20.66396 19.41436,39.83302 20.75114,42.59792 l 2.43052,5.02708 h -36.56719 -36.56717 z"
       id="path303" /></g></svg>
