<?xml version="1.0" encoding="utf-8"?>
<!-- Generator: Adobe Illustrator 15.0.0, SVG Export Plug-In . SVG Version: 6.00 Build 0)  -->
<!DOCTYPE svg PUBLIC "-//W3C//DTD SVG 1.1//EN" "http://www.w3.org/Graphics/SVG/1.1/DTD/svg11.dtd">
<svg version="1.1" id="ARTWORK" xmlns="http://www.w3.org/2000/svg" xmlns:xlink="http://www.w3.org/1999/xlink" x="0px" y="0px"
	 width="1702.484px" height="349.457px" viewBox="0 0 1702.484 349.457" enable-background="new 0 0 1702.484 349.457"
	 xml:space="preserve">
<g>
	<g>
		<path fill="#FEC81E" d="M339.827,99.543h-48.199l-11.229,25.973L258.17,0h-48.199l17.656,99.543H112.229L129.856,0H81.657
			L59.429,125.485L48.2,99.543H0l44.827,108.258l-18.199,102.8h48.199l3.771-21.285l24.915,60.143h48.199l18.2-78.657l18.199,78.657
			h48.199l24.915-60.143l3.771,21.285h48.201l-18.201-102.771L339.827,99.543z M217.913,269.972l-23.771-102.716h-0.286h-47.914
			h-0.285l-23.771,102.716l-28.286-65.43l10.059-56.829h132.484l10.059,56.829L217.913,269.972z"/>
	</g>
	<g>
		<path fill="#FFFFFF" d="M411.284,99.543h25.2v57.285h65.543V99.543h25.2v144h-25.2v-64.942h-65.543v64.942h-25.2V99.543z"/>
		<path fill="#FFFFFF" d="M630.456,220.343c0,2.827,0.371,4.827,1.115,6.057c0.741,1.2,2.17,1.829,4.342,1.829
			c0.658,0,1.485,0,2.43,0c0.941,0,2.027-0.143,3.229-0.4v15.943c-0.801,0.257-1.856,0.571-3.113,0.914
			c-1.286,0.343-2.602,0.629-3.943,0.914c-1.343,0.258-2.686,0.457-4.027,0.601c-1.344,0.143-2.486,0.199-3.43,0.199
			c-4.714,0-8.6-0.942-11.686-2.828s-5.114-5.171-6.059-9.886c-4.57,4.429-10.171,7.656-16.828,9.686
			c-6.656,2.029-13.086,3.029-19.258,3.029c-4.714,0-9.199-0.629-13.514-1.915c-4.314-1.285-8.114-3.144-11.4-5.657
			c-3.285-2.484-5.914-5.657-7.855-9.484c-1.943-3.829-2.916-8.314-2.916-13.4c0-6.457,1.173-11.687,3.543-15.742
			c2.345-4.029,5.457-7.2,9.287-9.486c3.828-2.284,8.143-3.941,12.914-4.941c4.771-1,9.57-1.771,14.428-2.314
			c4.173-0.8,8.144-1.371,11.887-1.715c3.771-0.343,7.086-0.914,9.972-1.714s5.171-2.058,6.856-3.743
			c1.687-1.686,2.515-4.199,2.515-7.57c0-2.942-0.715-5.371-2.114-7.258c-1.399-1.886-3.171-3.313-5.257-4.343
			c-2.086-1-4.399-1.686-6.972-2.028c-2.543-0.343-4.973-0.515-7.257-0.515c-6.458,0-11.771,1.343-15.943,4.028
			c-4.172,2.685-6.514,6.856-7.057,12.515h-23c0.399-6.715,2.028-12.313,4.827-16.743c2.801-4.429,6.43-8,10.801-10.686
			c4.372-2.687,9.314-4.571,14.829-5.657c5.514-1.086,11.171-1.6,16.942-1.6c5.113,0,10.144,0.543,15.113,1.6
			c4.973,1.086,9.457,2.829,13.4,5.229c3.971,2.429,7.171,5.543,9.57,9.371c2.43,3.828,3.629,8.515,3.629,14.028V220.343
			L630.456,220.343z M607.456,191.314c-3.485,2.285-7.799,3.657-12.914,4.143c-5.113,0.485-10.229,1.172-15.313,2.114
			c-2.429,0.4-4.771,0.972-7.058,1.714c-2.285,0.743-4.314,1.743-6.057,3.029c-1.744,1.285-3.115,2.971-4.145,5.027
			c-1,2.087-1.514,4.601-1.514,7.571c0,2.543,0.742,4.715,2.229,6.457c1.484,1.743,3.257,3.114,5.343,4.145
			c2.087,1,4.371,1.714,6.857,2.114c2.485,0.398,4.741,0.6,6.741,0.6c2.543,0,5.314-0.343,8.259-1
			c2.942-0.687,5.741-1.829,8.371-3.429c2.629-1.601,4.8-3.657,6.543-6.144c1.741-2.485,2.629-5.543,2.629-9.172v-17.171
			L607.456,191.314L607.456,191.314z"/>
		<path fill="#FFFFFF" d="M651.514,139.285h21.571v20.172h0.4c0.686-2.828,1.972-5.57,3.942-8.257
			c1.942-2.687,4.313-5.144,7.058-7.372c2.741-2.229,5.799-4,9.172-5.343c3.371-1.343,6.8-2.028,10.285-2.028
			c2.686,0,4.543,0.059,5.543,0.2c1,0.143,2.057,0.285,3.113,0.4v22.199c-1.601-0.257-3.257-0.515-4.941-0.714
			c-1.688-0.2-3.314-0.314-4.943-0.314c-3.914,0-7.571,0.771-11,2.314c-3.43,1.543-6.43,3.827-8.971,6.856
			c-2.543,3.028-4.572,6.771-6.059,11.199c-1.484,4.429-2.229,9.543-2.229,15.313v49.602h-23V139.284L651.514,139.285
			L651.514,139.285z"/>
		<path fill="#FFFFFF" d="M725.114,99.543h23v144h-23V99.543z"/>
		<path fill="#FFFFFF" d="M852.114,220.343c0,2.827,0.371,4.827,1.114,6.057c0.742,1.2,2.171,1.829,4.343,1.829
			c0.657,0,1.485,0,2.429,0c0.942,0,2.028-0.143,3.229-0.4v15.943c-0.801,0.257-1.856,0.571-3.114,0.914
			c-1.285,0.343-2.601,0.629-3.942,0.914c-1.343,0.258-2.687,0.457-4.028,0.601c-1.343,0.143-2.484,0.199-3.429,0.199
			c-4.715,0-8.601-0.942-11.687-2.828s-5.113-5.171-6.058-9.886c-4.571,4.429-10.171,7.656-16.828,9.686s-13.086,3.029-19.257,3.029
			c-4.715,0-9.199-0.629-13.515-1.915c-4.314-1.285-8.114-3.144-11.4-5.657c-3.285-2.484-5.914-5.657-7.856-9.484
			c-1.942-3.829-2.914-8.314-2.914-13.4c0-6.457,1.172-11.687,3.543-15.742c2.343-4.029,5.457-7.2,9.285-9.486
			c3.828-2.284,8.144-3.941,12.914-4.941c4.771-1,9.571-1.771,14.43-2.314c4.171-0.8,8.143-1.371,11.886-1.715
			c3.771-0.343,7.086-0.914,9.971-1.714c2.888-0.8,5.172-2.058,6.857-3.743c1.685-1.685,2.515-4.199,2.515-7.57
			c0-2.942-0.714-5.371-2.113-7.258c-1.4-1.886-3.173-3.313-5.259-4.343c-2.085-1-4.399-1.686-6.971-2.028
			c-2.543-0.343-4.972-0.515-7.259-0.515c-6.457,0-11.771,1.343-15.941,4.028c-4.172,2.686-6.516,6.856-7.059,12.515h-23
			c0.4-6.715,2.029-12.313,4.83-16.743c2.799-4.429,6.429-8,10.8-10.686c4.372-2.687,9.313-4.571,14.829-5.657
			c5.514-1.086,11.171-1.6,16.941-1.6c5.114,0,10.143,0.543,15.114,1.6c4.972,1.086,9.457,2.829,13.399,5.229
			c3.973,2.429,7.172,5.543,9.572,9.371c2.428,3.828,3.629,8.515,3.629,14.028V220.343L852.114,220.343z M829.143,191.314
			c-3.485,2.285-7.8,3.657-12.915,4.143c-5.113,0.485-10.229,1.172-15.313,2.114c-2.43,0.4-4.771,0.972-7.059,1.714
			c-2.285,0.743-4.313,1.743-6.057,3.029c-1.743,1.285-3.114,2.971-4.143,5.027c-1,2.087-1.516,4.601-1.516,7.571
			c0,2.543,0.743,4.715,2.229,6.457c1.485,1.743,3.258,3.114,5.344,4.145c2.086,1,4.371,1.714,6.857,2.114
			c2.484,0.398,4.741,0.6,6.741,0.6c2.543,0,5.314-0.343,8.259-1c2.941-0.687,5.741-1.829,8.371-3.429
			c2.629-1.601,4.799-3.657,6.543-6.144c1.741-2.485,2.629-5.543,2.629-9.172v-17.171L829.143,191.314L829.143,191.314z"/>
		<path fill="#FFFFFF" d="M870.343,139.285h21.771V154.6l0.399,0.399c3.485-5.771,8.058-10.313,13.714-13.6
			c5.657-3.286,11.887-4.943,18.743-4.943c11.429,0,20.429,2.973,27.028,8.887c6.601,5.913,9.887,14.8,9.887,26.629v71.6h-23
			v-65.543c-0.258-8.2-2.029-14.143-5.258-17.856c-3.229-3.687-8.258-5.543-15.114-5.543c-3.914,0-7.399,0.715-10.485,2.113
			c-3.086,1.4-5.715,3.372-7.857,5.857c-2.143,2.486-3.827,5.4-5.027,8.771c-1.2,3.371-1.829,6.914-1.829,10.687v61.515h-23V139.285
			H870.343L870.343,139.285z"/>
		<path fill="#FFFFFF" d="M1074.856,243.543h-21.771V229.43h-0.4c-3.085,6.057-7.6,10.398-13.514,13
			c-5.914,2.628-12.173,3.941-18.743,3.941c-8.2,0-15.371-1.457-21.485-4.343s-11.2-6.828-15.229-11.8
			c-4.029-4.973-7.058-10.857-9.087-17.657c-2.027-6.8-3.027-14.086-3.027-21.886c0-9.4,1.285-17.543,3.828-24.4
			c2.543-6.855,5.943-12.514,10.172-16.941c4.229-4.429,9.085-7.687,14.516-9.771c5.457-2.086,11-3.114,16.627-3.114
			c3.229,0,6.516,0.314,9.887,0.914c3.371,0.601,6.6,1.571,9.686,2.914c3.086,1.344,5.943,3.058,8.572,5.144
			c2.628,2.086,4.8,4.543,6.542,7.371h0.399V99.543h23v144H1074.856z M994.6,192.515c0,4.428,0.571,8.8,1.714,13.114
			c1.143,4.313,2.887,8.143,5.258,11.484c2.344,3.371,5.344,6.057,8.972,8.057c3.629,2.029,7.942,3.029,12.915,3.029
			c5.113,0,9.514-1.086,13.199-3.229c3.687-2.145,6.715-4.973,9.086-8.457c2.343-3.486,4.086-7.43,5.256-11.801
			c1.145-4.371,1.716-8.828,1.716-13.399c0-11.571-2.601-20.571-7.771-27.029c-5.172-6.457-12.2-9.686-21.086-9.686
			c-5.371,0-9.914,1.113-13.6,3.313c-3.687,2.229-6.716,5.114-9.087,8.687c-2.342,3.57-4.027,7.601-5.027,12.113
			C995.085,183.2,994.6,187.828,994.6,192.515z"/>
		<path fill="#FFFFFF" d="M1198.143,227.429c-5.372,6.6-11.343,11.398-17.856,14.429c-6.516,3.027-14.028,4.542-22.485,4.542
			c-6.601,0-12.687-0.971-18.259-2.914c-5.57-1.942-10.399-4.742-14.428-8.371c-4.029-3.629-7.172-8.114-9.371-13.399
			c-2.229-5.313-3.314-11.313-3.314-18.058c0-5.114,0.943-9.743,2.829-13.914c1.885-4.172,4.371-7.972,7.457-11.399
			c3.086-3.429,6.629-6.485,10.6-9.172c3.972-2.687,8.029-5.114,12.2-7.258c-1.886-2.429-3.686-4.8-5.457-7.171
			c-1.743-2.343-3.286-4.801-4.628-7.372c-1.345-2.543-2.431-5.229-3.229-8.057c-0.8-2.829-1.199-5.771-1.199-8.886
			c0-5.257,0.914-9.943,2.715-14.114c1.828-4.172,4.343-7.771,7.57-10.8c3.229-3.029,7-5.344,11.287-6.973
			c4.313-1.6,8.885-2.429,13.713-2.429c4.571,0,9.028,0.714,13.4,2.114c4.371,1.399,8.2,3.571,11.485,6.457
			c3.286,2.886,5.942,6.485,7.972,10.8c2.028,4.314,3.028,9.343,3.028,15.114c0,4.313-0.714,8.258-2.114,11.915
			c-1.398,3.628-3.286,6.971-5.657,9.971c-2.343,3.029-5.114,5.743-8.257,8.172c-3.171,2.429-6.484,4.571-9.972,6.457l22.399,27.028
			c0.801-2.285,1.601-4.914,2.43-7.857c0.8-2.942,1.484-6.8,2.027-11.485h20.172c-0.686,6.314-1.914,12.516-3.742,18.543
			c-1.829,6.059-4.344,11.63-7.571,16.743l27.628,33.485h-28.229L1198.143,227.429z M1157.6,177
			c-2.144,1.344-4.515,2.687-7.058,4.028s-4.942,3.028-7.172,5.028c-2.229,2.028-4.113,4.429-5.656,7.258
			c-1.543,2.828-2.314,6.398-2.314,10.686c0,7.801,2.172,13.771,6.543,17.942c4.371,4.172,9.914,6.258,16.629,6.258
			c4.172,0,7.742-0.571,10.687-1.715c2.942-1.143,5.485-2.514,7.571-4.143c2.086-1.602,3.828-3.371,5.257-5.257
			c1.399-1.887,2.657-3.572,3.743-5.029L1157.6,177z M1166.885,113.256c-4.313,0-7.942,1.457-10.886,4.344
			c-2.971,2.886-4.428,6.743-4.428,11.601c0,2.429,0.428,4.687,1.313,6.742c0.885,2.086,1.942,4.114,3.229,6.058
			c1.285,1.942,2.686,3.857,4.229,5.742c1.542,1.886,3,3.688,4.343,5.458c2.144-1.486,4.229-3,6.257-4.543
			c2.028-1.543,3.828-3.229,5.457-5.029c1.601-1.828,2.887-3.855,3.828-6.143c0.943-2.285,1.4-4.828,1.4-7.657
			c0-4.714-1.344-8.628-4.028-11.8C1174.856,114.857,1171.313,113.256,1166.885,113.256z"/>
		<path fill="#FFFFFF" d="M1249.628,99.543h25.6l26.029,110.114h0.398l29.028-110.114h25.829l28.229,110.114h0.398l26.829-110.114
			h25.601l-39.742,144h-25.629l-28.828-110.113h-0.399l-29.457,110.113h-26.028L1249.628,99.543z"/>
		<path fill="#FFFFFF" d="M1478.771,246.371c-8.343,0-15.771-1.371-22.285-4.143c-6.515-2.743-12.028-6.543-16.543-11.4
			c-4.515-4.828-7.942-10.628-10.285-17.343c-2.344-6.714-3.542-14.114-3.542-22.2c0-7.941,1.171-15.257,3.542-21.971
			c2.343-6.715,5.771-12.515,10.285-17.343c4.515-4.829,10.028-8.629,16.543-11.4c6.515-2.743,13.942-4.143,22.285-4.143
			c8.344,0,15.771,1.371,22.285,4.143c6.515,2.743,12.029,6.543,16.543,11.4c4.515,4.828,7.943,10.628,10.286,17.343
			c2.343,6.714,3.543,14.057,3.543,21.971c0,8.059-1.173,15.458-3.543,22.2c-2.343,6.715-5.771,12.515-10.286,17.343
			c-4.514,4.829-10.028,8.629-16.543,11.4C1494.514,245,1487.085,246.371,1478.771,246.371z M1478.771,228.229
			c5.114,0,9.543-1.086,13.314-3.229c3.771-2.143,6.856-4.972,9.285-8.457s4.199-7.429,5.344-11.8
			c1.143-4.372,1.714-8.829,1.714-13.4c0-4.429-0.571-8.886-1.714-13.313c-1.145-4.429-2.915-8.371-5.344-11.8
			c-2.429-3.43-5.515-6.229-9.285-8.371c-3.771-2.145-8.2-3.229-13.314-3.229c-5.113,0-9.543,1.085-13.313,3.229
			c-3.771,2.143-6.857,4.941-9.285,8.371c-2.429,3.429-4.2,7.371-5.343,11.8c-1.145,4.429-1.715,8.886-1.715,13.313
			c0,4.571,0.57,9.059,1.715,13.4c1.143,4.371,2.914,8.313,5.343,11.8c2.428,3.485,5.514,6.314,9.285,8.457
			C1469.2,227.143,1473.657,228.229,1478.771,228.229z"/>
		<path fill="#FFFFFF" d="M1542.856,99.543h23v144h-23V99.543z"/>
		<path fill="#FFFFFF" d="M1575.685,139.285h17.145V130.6c0-6.601,0.8-11.942,2.429-16.028c1.601-4.086,3.771-7.257,6.457-9.485
			c2.687-2.228,5.742-3.686,9.171-4.429s7.028-1.114,10.8-1.114c7.4,0,12.771,0.485,16.145,1.399v17.943
			c-1.485-0.4-3.059-0.715-4.743-0.914c-1.686-0.2-3.657-0.314-5.941-0.314c-3.086,0-5.743,0.743-7.973,2.229
			c-2.229,1.486-3.313,4.371-3.313,8.686v10.687h19.571v17.144h-19.571v87.113h-23v-87.113h-17.144v-17.114h-0.031V139.285z"/>
		<path fill="#FFFFFF" d="M1640.342,139.285h17.144V130.6c0-6.601,0.801-11.942,2.429-16.028c1.6-4.086,3.771-7.257,6.457-9.485
			c2.686-2.228,5.743-3.686,9.172-4.429s7.028-1.114,10.8-1.114c7.4,0,12.771,0.485,16.145,1.399v17.943
			c-1.486-0.4-3.059-0.715-4.743-0.914c-1.687-0.2-3.657-0.314-5.942-0.314c-3.086,0-5.742,0.743-7.972,2.229
			c-2.229,1.484-3.313,4.371-3.313,8.686v10.687h19.57v17.144h-19.57v87.113h-23v-87.113h-17.144v-17.114h-0.031V139.285z"/>
	</g>
</g>
</svg>
